<?xml version="1.0" encoding="UTF-8"?>
<svg width="155px" height="139px" viewBox="0 0 155 139" xmlns="http://www.w3.org/2000/svg" xmlns:xlink="http://www.w3.org/1999/xlink" version="1.1">
 <!-- Generated by Pixelmator Pro 1.5.5 -->
 <path id="􀌭" d="M51.955 120.201 C53.859 120.201 55.275 119.225 57.57 117.076 L75.197 100.963 108.205 101.012 C122.756 101.061 130.568 92.955 130.568 78.648 L130.568 41.246 C130.568 26.939 122.756 18.883 108.205 18.883 L45.314 18.883 C30.764 18.883 22.951 26.891 22.951 41.246 L22.951 78.648 C22.951 93.004 30.764 101.012 45.314 100.963 L47.609 100.963 47.609 115.172 C47.609 118.199 49.172 120.201 51.955 120.201 Z M77.102 68.346 C74.514 68.346 73.098 66.832 73 64.244 L72.316 40.123 C72.219 37.438 74.27 35.533 77.053 35.533 79.787 35.533 81.936 37.486 81.838 40.172 L81.105 64.244 C81.008 66.881 79.592 68.346 77.102 68.346 Z M77.102 86.314 C74.27 86.314 71.633 84.068 71.633 81.041 71.633 78.014 74.221 75.768 77.102 75.768 79.934 75.768 82.57 77.965 82.57 81.041 82.57 84.117 79.885 86.314 77.102 86.314 Z" fill="#1a2e33" fill-opacity="1" stroke="none"/>
</svg>
