<?xml version="1.0" encoding="UTF-8"?>
<svg width="231px" height="139px" viewBox="0 0 231 139" xmlns="http://www.w3.org/2000/svg" xmlns:xlink="http://www.w3.org/1999/xlink" version="1.1">
 <!-- Generated by Pixelmator Pro 1.5.5 -->
 <path id="ô€‹" d="M114.992 68.758 C125.441 68.758 134.475 59.383 134.475 47.176 134.475 35.115 125.393 26.18 114.992 26.18 104.543 26.18 95.412 35.311 95.461 47.273 95.461 59.383 104.494 68.758 114.992 68.758 Z M58.742 69.881 C67.873 69.881 75.734 61.678 75.734 51.082 75.734 40.584 67.824 32.82 58.742 32.82 49.709 32.82 41.701 40.779 41.75 51.18 41.75 61.678 49.66 69.881 58.742 69.881 Z M171.193 69.881 C180.324 69.881 188.234 61.678 188.234 51.18 188.234 40.779 180.275 32.82 171.193 32.82 162.111 32.82 154.201 40.584 154.201 51.082 154.201 61.678 162.111 69.881 171.193 69.881 Z M31.545 113.973 L68.605 113.973 C63.527 106.6 69.729 91.756 80.275 83.65 74.807 80.037 67.824 77.352 58.742 77.352 36.721 77.352 22.951 93.611 22.951 107.137 22.951 111.531 25.344 113.973 31.545 113.973 Z M198.391 113.973 C204.592 113.973 206.984 111.531 206.984 107.137 206.984 93.611 193.264 77.352 171.242 77.352 162.111 77.352 155.129 80.037 149.66 83.65 160.207 91.756 166.408 106.6 161.33 113.973 Z M84.279 113.973 L145.607 113.973 C153.322 113.973 156.057 111.775 156.057 107.479 156.057 94.881 140.285 77.498 114.943 77.498 89.65 77.498 73.879 94.881 73.879 107.479 73.879 111.775 76.613 113.973 84.279 113.973 Z" fill="#1a2e33" fill-opacity="1" stroke="none"/>
</svg>
