<?xml version="1.0" encoding="UTF-8"?>
<svg width="145px" height="139px" viewBox="0 0 145 139" xmlns="http://www.w3.org/2000/svg" xmlns:xlink="http://www.w3.org/1999/xlink" version="1.1">
 <!-- Generated by Pixelmator Pro 1.5.5 -->
 <path id="􀉉" d="M38.283 115.266 L104.982 115.266 C115.188 115.266 120.266 110.188 120.266 100.129 L120.266 40.51 C120.266 30.451 115.188 25.373 104.982 25.373 L38.283 25.373 C28.078 25.373 22.951 30.402 22.951 40.51 L22.951 100.129 C22.951 110.236 28.078 115.266 38.283 115.266 Z M37.551 107.404 C33.205 107.404 30.813 105.109 30.813 100.568 L30.813 54.523 C30.813 50.031 33.205 47.688 37.551 47.688 L105.617 47.688 C109.963 47.688 112.404 50.031 112.404 54.523 L112.404 100.568 C112.404 105.109 109.963 107.404 105.617 107.404 Z M62.063 65.217 L64.943 65.217 C66.652 65.217 67.238 64.729 67.238 63.02 L67.238 60.139 C67.238 58.43 66.652 57.893 64.943 57.893 L62.063 57.893 C60.354 57.893 59.768 58.43 59.768 60.139 L59.768 63.02 C59.768 64.729 60.354 65.217 62.063 65.217 Z M78.322 65.217 L81.154 65.217 C82.863 65.217 83.449 64.729 83.449 63.02 L83.449 60.139 C83.449 58.43 82.863 57.893 81.154 57.893 L78.322 57.893 C76.564 57.893 76.027 58.43 76.027 60.139 L76.027 63.02 C76.027 64.729 76.564 65.217 78.322 65.217 Z M94.533 65.217 L97.414 65.217 C99.123 65.217 99.66 64.729 99.66 63.02 L99.66 60.139 C99.66 58.43 99.123 57.893 97.414 57.893 L94.533 57.893 C92.824 57.893 92.238 58.43 92.238 60.139 L92.238 63.02 C92.238 64.729 92.824 65.217 94.533 65.217 Z M45.852 81.184 L48.732 81.184 C50.441 81.184 50.979 80.695 50.979 78.986 L50.979 76.105 C50.979 74.396 50.441 73.908 48.732 73.908 L45.852 73.908 C44.143 73.908 43.557 74.396 43.557 76.105 L43.557 78.986 C43.557 80.695 44.143 81.184 45.852 81.184 Z M62.063 81.184 L64.943 81.184 C66.652 81.184 67.238 80.695 67.238 78.986 L67.238 76.105 C67.238 74.396 66.652 73.908 64.943 73.908 L62.063 73.908 C60.354 73.908 59.768 74.396 59.768 76.105 L59.768 78.986 C59.768 80.695 60.354 81.184 62.063 81.184 Z M78.322 81.184 L81.154 81.184 C82.863 81.184 83.449 80.695 83.449 78.986 L83.449 76.105 C83.449 74.396 82.863 73.908 81.154 73.908 L78.322 73.908 C76.564 73.908 76.027 74.396 76.027 76.105 L76.027 78.986 C76.027 80.695 76.564 81.184 78.322 81.184 Z M94.533 81.184 L97.414 81.184 C99.123 81.184 99.66 80.695 99.66 78.986 L99.66 76.105 C99.66 74.396 99.123 73.908 97.414 73.908 L94.533 73.908 C92.824 73.908 92.238 74.396 92.238 76.105 L92.238 78.986 C92.238 80.695 92.824 81.184 94.533 81.184 Z M45.852 97.199 L48.732 97.199 C50.441 97.199 50.979 96.662 50.979 94.953 L50.979 92.072 C50.979 90.363 50.441 89.875 48.732 89.875 L45.852 89.875 C44.143 89.875 43.557 90.363 43.557 92.072 L43.557 94.953 C43.557 96.662 44.143 97.199 45.852 97.199 Z M62.063 97.199 L64.943 97.199 C66.652 97.199 67.238 96.662 67.238 94.953 L67.238 92.072 C67.238 90.363 66.652 89.875 64.943 89.875 L62.063 89.875 C60.354 89.875 59.768 90.363 59.768 92.072 L59.768 94.953 C59.768 96.662 60.354 97.199 62.063 97.199 Z M78.322 97.199 L81.154 97.199 C82.863 97.199 83.449 96.662 83.449 94.953 L83.449 92.072 C83.449 90.363 82.863 89.875 81.154 89.875 L78.322 89.875 C76.564 89.875 76.027 90.363 76.027 92.072 L76.027 94.953 C76.027 96.662 76.564 97.199 78.322 97.199 Z" fill="#1b2f33" fill-opacity="1" stroke="none"/>
</svg>
